<svg width="140" height="140" viewBox="0 0 140 140" fill="none" xmlns="http://www.w3.org/2000/svg">
<path fill-rule="evenodd" clip-rule="evenodd" d="M26.9695 16.1473C21.046 17.4186 14.5241 22.6427 11.7004 28.3781C10.406 31.0071 9.7822 33.3075 9.378 36.943C8.65373 43.4524 9.16744 93.9834 9.99671 97.8007C10.3337 99.3531 11.6361 102.71 12.8904 105.26C16.6349 112.874 23.4943 118.893 31.8277 121.876C34.5882 122.863 37.308 123.169 47.3135 123.615C59.2146 124.145 102.783 123.777 106.498 123.115C110.512 122.399 111.979 116.083 108.925 112.664C107.373 110.928 107.109 110.848 102.151 110.611L96.9909 110.364V99.9898C96.9909 93.9682 97.2111 89.6152 97.5159 89.6152C97.8049 89.6152 101.453 92.9814 105.624 97.095C114.21 105.564 116.168 108.741 117.346 116.12C118.113 120.918 119.954 123.438 122.774 123.549C129.34 123.806 131.242 121.519 130.713 114.005C130.339 108.683 127.8 101.422 124.963 97.5579C123.858 96.0529 118.621 90.6014 113.325 85.444L103.696 76.0668H97.7852C88.5299 76.0668 83.8992 74.196 77.1459 67.7283L73.3891 64.1312L69.0022 65.888C57.5566 70.4707 48.6943 79.6232 45.1649 90.5037C44.0562 93.9224 42.8899 101.476 42.6444 106.833L42.5151 109.655L39.9748 109.625C34.4561 109.559 27.4933 104.652 24.4794 98.7039L23.0274 95.8395L22.8925 66.054C22.7401 32.4878 22.5521 34.0583 27.0722 31.0669C28.8024 29.9221 30.2476 29.4897 32.8432 29.3418C37.0935 29.099 39.7072 30.3421 41.2675 33.3482C43.4979 37.6458 41.0163 42.3256 35.5428 44.144C30.9516 45.6687 28.7657 49.149 29.8756 53.1689C32.0032 60.874 45.8311 57.7798 52.1158 48.1921C57.5182 39.9496 56.6269 29.851 49.8499 22.5315C45.371 17.6936 41.8191 16.1456 34.6542 15.9074C31.5262 15.8036 28.068 15.9119 26.9695 16.1473ZM91.9103 16.1569C87.3207 17.1736 80.5234 22.2611 77.742 26.7608C76.8524 28.2009 75.8916 28.8416 73.6431 29.4953C65.8426 31.763 61.55 40.3408 64.5312 47.7044C65.8443 50.9475 70.265 54.8545 73.5607 55.6844C76.228 56.3561 76.6085 56.6779 79.4706 60.6775C83.3849 66.1488 90.1202 69.4636 97.2732 69.4399C103.893 69.4173 107.524 67.8813 112.216 63.119C114.243 61.0614 116.357 58.6893 116.913 57.8482C117.468 57.007 118.611 56.1794 119.453 56.0084C127.623 54.3498 133.052 45.1437 130.07 38.006C128.309 33.7919 122.68 29.2594 119.166 29.2244C118.276 29.2153 117.357 28.3431 115.997 26.2177C113.697 22.6223 110.194 19.5175 106.274 17.5993C103.132 16.0621 95.7049 15.3164 91.9103 16.1569ZM108.298 30.4821C111.373 32.0356 113.138 34.5658 113.627 38.1211C114.233 42.5289 112.13 46.1265 107.576 48.4687C105.98 49.289 105.459 49.9065 105.459 50.9752C105.459 53.0396 104.134 55.8198 102.381 57.4377C101.084 58.6345 100.306 58.849 97.2647 58.849C94.056 58.849 93.4881 58.6707 91.8781 57.1555C89.882 55.2779 88.5232 52.5592 88.5232 50.4434C88.5232 49.3731 88.0941 48.9158 86.6405 48.436C80.2287 46.3202 78.4381 36.9639 83.534 32.2061C86.2115 29.7059 88.2883 29.2577 97.2946 29.234C105.002 29.2142 106.015 29.3288 108.298 30.4821ZM88.281 36.873C87.1553 37.9992 87.1333 40.7123 88.2426 41.633C89.4868 42.6655 91.9915 42.4911 92.8541 41.3118C94.5144 39.0413 93.1635 35.9861 90.499 35.9861C89.7674 35.9861 88.7693 36.3852 88.281 36.873ZM101.829 36.873C100.704 37.9992 100.682 40.7123 101.791 41.633C103.035 42.6655 105.54 42.4911 106.403 41.3118C108.063 39.0413 106.712 35.9861 104.047 35.9861C103.316 35.9861 102.318 36.3852 101.829 36.873Z" fill="white"/>
</svg>
