<svg width="50" height="70" viewBox="0 0 50 70" fill="none" xmlns="http://www.w3.org/2000/svg">
<path d="M25 35.6961H25.0008C27.7711 35.6931 30.4272 34.5912 32.3861 32.6322C34.3451 30.6733 35.447 28.0172 35.45 25.2469V25.2461C35.45 23.1793 34.8371 21.1589 33.6888 19.4404C32.5406 17.7219 30.9085 16.3825 28.999 15.5915C27.0895 14.8006 24.9884 14.5937 22.9613 14.9969C20.9342 15.4001 19.0722 16.3954 17.6107 17.8568C16.1493 19.3183 15.154 21.1803 14.7508 23.2074C14.3476 25.2345 14.5545 27.3356 15.3455 29.2451C16.1364 31.1546 17.4758 32.7867 19.1943 33.9349C20.9128 35.0832 22.9332 35.6961 25 35.6961ZM25 68.0676C24.855 67.9025 24.6815 67.7038 24.4823 67.4732C23.82 66.7068 22.8726 65.5889 21.7351 64.1861C19.4596 61.3796 16.4266 57.4366 13.3949 52.889C10.362 48.3397 7.33869 43.1976 5.07554 37.9924C2.80929 32.78 1.325 27.5486 1.325 22.8086C1.325 11.1529 11.8589 1.57109 25 1.57109C38.1411 1.57109 48.675 11.1529 48.675 22.8086C48.675 27.5486 47.1907 32.78 44.9244 37.9924C42.6613 43.1976 39.638 48.3397 36.605 52.889C33.5734 57.4366 30.5404 61.3796 28.2649 64.1861C27.1274 65.5889 26.18 66.7068 25.5177 67.4732C25.3185 67.7038 25.145 67.9025 25 68.0676Z" fill="#55FFA3" stroke="#3E4247" stroke-width="1.4"/>
</svg>
