<svg width="32" height="32" viewBox="0 0 32 32" fill="none" xmlns="http://www.w3.org/2000/svg">
<path fill-rule="evenodd" clip-rule="evenodd" d="M9.24903 7.79383C9.3435 7.66251 9.44842 7.50174 9.5822 7.28496C9.63107 7.20577 9.76432 6.98593 9.86356 6.82221L9.86364 6.82208L9.97541 6.63788C11.0807 4.82985 11.8842 4 13.333 4H19.9997V6.66667H13.333C13.2174 6.66667 12.8537 7.0423 12.2506 8.02878L12.1536 8.18863L12.1534 8.18896C12.0534 8.35407 11.9076 8.59449 11.8515 8.68545C11.6876 8.95109 11.5513 9.15984 11.4138 9.35101C10.8162 10.1819 10.2188 10.6667 9.33301 10.6667H5.33301C4.59663 10.6667 3.99967 11.2636 3.99967 12V24C3.99967 24.7364 4.59663 25.3333 5.33301 25.3333H26.6663C27.4027 25.3333 27.9997 24.7364 27.9997 24V16H30.6663V24C30.6663 26.2091 28.8755 28 26.6663 28H5.33301C3.12387 28 1.33301 26.2091 1.33301 24V12C1.33301 9.79086 3.12387 8 5.33301 8H9.08794C9.13233 7.94925 9.18674 7.88044 9.24903 7.79383ZM22.666 10.6667V8H25.333V5.33301H27.9997V8H30.666V10.6667H27.9997V13.333H25.333V10.6667H22.666ZM15.9997 24.0003C12.3178 24.0003 9.33301 21.0156 9.33301 17.3337C9.33301 13.6518 12.3178 10.667 15.9997 10.667C19.6816 10.667 22.6663 13.6518 22.6663 17.3337C22.6663 21.0156 19.6816 24.0003 15.9997 24.0003ZM16 21.333C18.2091 21.333 20 19.5421 20 17.333C20 15.1239 18.2091 13.333 16 13.333C13.7909 13.333 12 15.1239 12 17.333C12 19.5421 13.7909 21.333 16 21.333Z" fill="#0E0F11"/>
</svg>
