<svg width="20" height="20" viewBox="0 0 20 20" fill="none" xmlns="http://www.w3.org/2000/svg">
<path d="M19.7266 17.2913L15.8324 13.3971C15.6567 13.2214 15.4184 13.1237 15.1684 13.1237H14.5318C15.6098 11.7449 16.2504 10.0107 16.2504 8.12421C16.2504 3.63636 12.614 0 8.12616 0C3.63832 0 0.00195312 3.63636 0.00195312 8.12421C0.00195312 12.6121 3.63832 16.2484 8.12616 16.2484C10.0127 16.2484 11.7469 15.6079 13.1257 14.5298V15.1665C13.1257 15.4165 13.2233 15.6547 13.3991 15.8305L17.2932 19.7246C17.6604 20.0918 18.2541 20.0918 18.6173 19.7246L19.7227 18.6193C20.0898 18.2521 20.0898 17.6584 19.7266 17.2913ZM8.12616 13.1237C5.36471 13.1237 3.12665 10.8896 3.12665 8.12421C3.12665 5.36276 5.36081 3.1247 8.12616 3.1247C10.8876 3.1247 13.1257 5.35885 13.1257 8.12421C13.1257 10.8857 10.8915 13.1237 8.12616 13.1237Z" fill="#0E0F11"/>
</svg>
