<svg width="26" height="26" viewBox="0 0 26 26" fill="none" xmlns="http://www.w3.org/2000/svg">
<path fill-rule="evenodd" clip-rule="evenodd" d="M25.597 6.46857C25.3788 6.17687 25.0715 5.95309 24.6753 5.79678C24.6965 6.16155 24.6706 6.45845 24.5977 6.68782L19.9139 22.1097C19.8305 22.3805 19.6482 22.5966 19.3675 22.7581C19.0864 22.9197 18.795 23.0004 18.4932 23.0004H4.08278C2.83378 23.0004 2.08449 22.6364 1.83459 21.9067C1.73052 21.6254 1.73577 21.4016 1.85034 21.2349C1.96474 21.0785 2.16248 21.0002 2.44366 21.0002H16.011C16.9791 21.0002 17.6478 20.8204 18.0173 20.461C18.3872 20.1016 18.7591 19.3021 19.1336 18.0626L23.4115 3.90608C23.6404 3.13528 23.5468 2.45813 23.1303 1.87494C22.7139 1.29176 22.1207 1 21.3505 1H9.46939C9.3341 1 8.1499 1.00257 7.94697 1.00755C7.74409 1.01297 7.55668 1.07279 7.38497 1.18755C7.21326 1.30216 7.07524 1.42442 6.97123 1.55456C6.86716 1.68482 6.76556 1.85152 6.66674 2.05456C6.56804 2.25788 0.164297 20.0832 0.164297 20.1248C-0.0646683 20.75 -0.0543876 21.4115 0.195576 22.1097C0.487046 22.9218 1.00475 23.6071 1.74895 24.1643C2.49321 24.7217 3.2659 25 4.06747 25H18.478C19.1543 25 19.7919 24.7734 20.3904 24.3205C20.9889 23.8673 21.3872 23.3076 21.5846 22.6405L25.8779 8.48439C26.1072 7.73417 26.0136 7.06232 25.597 6.46857ZM8.98527 6.49982L9.31321 5.49972C9.35477 5.36432 9.44057 5.24714 9.57072 5.1482C9.70087 5.04941 9.83364 4.99977 9.96893 4.99977H19.4616C19.6072 4.99977 19.7112 5.04919 19.7737 5.1482C19.8361 5.2472 19.8467 5.36432 19.8052 5.49972L19.477 6.49982C19.4352 6.63528 19.3497 6.75218 19.2192 6.8514C19.089 6.95018 18.9565 6.9996 18.8212 6.9996H9.32885C9.18306 6.9996 9.07905 6.95035 9.01655 6.8514C8.9541 6.75218 8.94371 6.63528 8.98527 6.49982ZM8.0174 9.49993L7.68951 10.4999C7.6479 10.6353 7.65823 10.7526 7.72079 10.8514C7.78319 10.9506 7.88725 10.9998 8.03293 10.9998H17.5253C17.6608 10.9998 17.7932 10.9504 17.9235 10.8514C18.0536 10.7526 18.1395 10.6353 18.181 10.4999L18.5089 9.49993C18.5506 9.36453 18.5402 9.24741 18.4778 9.14841C18.4155 9.04924 18.3112 8.99998 18.1655 8.99998H8.67313C8.53767 8.99998 8.40506 9.0494 8.27491 9.14841C8.14487 9.24735 8.05896 9.36453 8.0174 9.49993Z" fill="#3E4247"/>
</svg>
